<svg xmlns="http://www.w3.org/2000/svg" viewBox="0 0 512 512"><defs><linearGradient id="g" x1="0" y1="0" x2="1" y2="1"><stop stop-color="#18c46e"/><stop offset="1" stop-color="#5b8cff"/></linearGradient></defs><rect width="512" height="512" rx="112" fill="#080d1b"/><circle cx="256" cy="256" r="188" fill="url(#g)" opacity=".18"/><path d="M111 267c0-92 65-157 153-157 55 0 98 22 124 58l-54 43c-16-22-38-34-69-34-51 0-86 37-86 90s36 90 91 90c24 0 45-6 61-18v-43h-77v-61h145v139c-33 31-80 50-133 50-91 0-155-65-155-157Z" fill="#fff"/></svg>
